<svg version="1.1" id="Layer_1" xmlns="http://www.w3.org/2000/svg" xmlns:xlink="http://www.w3.org/1999/xlink" x="0px" y="0px"
	 viewBox="0 0 24.2 21.3" style="enable-background:new 0 0 24.2 21.3;" xml:space="preserve">
<style type="text/css">
	.st0{fill:#212121;}
</style>
<g>
	<path class="st0" d="M11.6,11.1c-2.7,0-4.9-2.2-4.9-4.9S9,1.3,11.6,1.3c2.7,0,4.9,2.2,4.9,4.9S14.3,11.1,11.6,11.1z M11.6,2.3
		c-2.1,0-3.9,1.7-3.9,3.9s1.7,3.9,3.9,3.9s3.9-1.7,3.9-3.9S13.8,2.3,11.6,2.3z"/>
	<g>
		<path class="st0" d="M17.2,20h-0.5v-1.6l0-0.8h0l-0.4,0.8l-0.5,0.9h-0.4l-0.5-0.9l-0.4-0.8h0l0,0.8V20h-0.5v-3.4h0.5l1.1,2l1.1-2
			h0.5V20z"/>
		<path class="st0" d="M18.8,18.8l-1.3-2.2h0.6l0.9,1.6l0.9-1.6h0.6l-1.3,2.2V20h-0.5V18.8z"/>
	</g>
	<path class="st0" d="M4.1,19.5c-0.2,0-0.4-0.2-0.4-0.4c0-0.1-0.3-3.2,1.8-4.7c1.6-1.2,3.5-1.7,6.3-1.6c2.5,0,4.4,0.4,6,1.2
		c0.2,0.1,0.3,0.4,0.2,0.6c-0.1,0.2-0.4,0.3-0.6,0.2c-1.5-0.7-3.2-1.1-5.6-1.1c-2.7,0-4.3,0.4-5.8,1.5c-1.7,1.2-1.5,3.9-1.5,4
		C4.5,19.3,4.3,19.5,4.1,19.5C4.1,19.5,4.1,19.5,4.1,19.5z"/>
</g>
</svg>
