
<svg version="1.1" id="Layer_1" xmlns="http://www.w3.org/2000/svg" x="0px" y="0px"
	 viewBox="0 0 24.2 21.3" >
<style type="text/css">
	.st0{fill:#212121;}
</style>
<g>
	<path class="st0" d="M9.1,20.6c-1.3,0-2.3-1-2.3-2.3s1-2.3,2.3-2.3s2.3,1,2.3,2.3S10.4,20.6,9.1,20.6z M9.1,17
		c-0.7,0-1.3,0.6-1.3,1.3s0.6,1.3,1.3,1.3s1.3-0.6,1.3-1.3S9.9,17,9.1,17z"/>
	<path class="st0" d="M17.9,20.6c-1.3,0-2.3-1-2.3-2.3s1-2.3,2.3-2.3s2.3,1,2.3,2.3S19.1,20.6,17.9,20.6z M17.9,17
		c-0.7,0-1.3,0.6-1.3,1.3s0.6,1.3,1.3,1.3s1.3-0.6,1.3-1.3S18.6,17,17.9,17z"/>
	<path class="st0" d="M20.4,15.3H7.3c-0.3,0-0.5-0.2-0.5-0.4L5.1,1.7H2.6c-0.3,0-0.5-0.2-0.5-0.5s0.2-0.5,0.5-0.5h3
		c0.3,0,0.5,0.2,0.5,0.4l1.7,13.2h12.7c0.3,0,0.5,0.2,0.5,0.5S20.7,15.3,20.4,15.3z"/>
	<path class="st0" d="M20.1,12.7h-13c-0.3,0-0.5-0.2-0.5-0.5s0.2-0.5,0.5-0.5h12.6l1.4-7.5H6.4c-0.3,0-0.5-0.2-0.5-0.5
		s0.2-0.5,0.5-0.5h15.3c0.1,0,0.3,0.1,0.4,0.2c0.1,0.1,0.1,0.3,0.1,0.4l-1.6,8.5C20.6,12.5,20.4,12.7,20.1,12.7z"/>
</g>
</svg>
