<svg xmlns="http://www.w3.org/2000/svg" xmlns:xlink="http://www.w3.org/1999/xlink" viewBox="0 0 40 40"><style>.st0{display:none}.st8{display:inline}.st14{fill:none}.st19,.st20{opacity:.4;fill:none;stroke:#00a0e9;stroke-width:.1;stroke-miterlimit:10}.st20{fill-rule:evenodd;clip-rule:evenodd}</style><g id="guid" class="st0"><g class="st8"><path class="st19" d="M0 0h40v40H0z"/><circle class="st20" cx="20" cy="20" r="18"/><path class="st20" d="M32 38H8c-1.1 0-2-.9-2-2V4c0-1.1.9-2 2-2h24c1.1 0 2 .9 2 2v32c0 1.1-.9 2-2 2z"/><path class="st20" d="M36 34H4c-1.1 0-2-.9-2-2V8c0-1.1.9-2 2-2h32c1.1 0 2 .9 2 2v24c0 1.1-.9 2-2 2z"/><path class="st20" d="M34 36H6c-1.1 0-2-.9-2-2V6c0-1.1.9-2 2-2h28c1.1 0 2 .9 2 2v28c0 1.1-.9 2-2 2z"/><path class="st19" d="M0 0l40 40M40 0L0 40"/><circle class="st19" cx="20" cy="20" r="10"/><path class="st19" d="M20 0v40M28 0v40M12 0v40M0 12h40M0 28h40"/></g></g><g id="brands" class="st0"><path class="st8" d="M20.9 5.3l1.7.1c2.3-1 4.4-1.6 6.4-1.7 1.9-.1 3.4.4 4.5 1.5.8.8 1.3 2 1.4 3.4s-.1 3-.7 4.7c.6 1.1 1 2.2 1.4 3.4.3 1.2.5 2.5.5 3.8l-.1 1.7H14.3c.3 1.9 1.1 3.5 2.3 4.8s2.6 1.9 4.3 1.9c1.1 0 2.1-.3 3-.9.9-.6 1.7-1.4 2.3-2.5h8.9c-.5 1.5-1.3 2.8-2.2 4.1-.9 1.2-2 2.3-3.3 3.2-1.2.9-2.6 1.6-4.1 2.1-1.5.5-3.1.8-4.7.8-1.1 0-2.1-.1-3.1-.3s-2-.5-2.9-1c-2.4 1.2-4.7 1.9-6.7 2s-3.6-.4-4.7-1.5c-.7-.7-1.1-1.5-1.3-2.5-.2-1-.2-2.1 0-3.4.2-1.3.7-2.6 1.3-4 .6-1.4 1.4-2.9 2.4-4.4.8-1.2 1.7-2.4 2.7-3.7 1-1.2 2.1-2.4 3.3-3.6l1.4-1.3c-1 .6-2.1 1.3-3.3 2.2s-2.5 2-3.7 3.3c.4-1.7 1-3.3 1.9-4.8.9-1.5 2-2.7 3.3-3.8s2.8-1.9 4.4-2.5 3.3-1.1 5.1-1.1zm0 6.8c-1.5 0-2.9.6-4 1.7s-2 2.5-2.4 4.2h12.8c-.4-1.7-1.2-3.1-2.4-4.2-1.2-1.2-2.5-1.7-4-1.7zm11.8-5c-.6-.6-1.3-.9-2.3-.9-1-.1-2.1.1-3.3.5 1.2.6 2.4 1.3 3.4 2.1 1 .9 2 1.9 2.7 3 .3-1 .4-2 .3-2.8 0-.7-.3-1.4-.8-1.9zm-27 26.7c.7.7 1.7 1 3 .9 1.3-.1 2.9-.5 4.6-1.3-1.5-.9-2.9-2.1-4-3.5-1.2-1.4-2-3-2.6-4.7-1 1.9-1.6 3.6-1.8 5.1-.3 1.6 0 2.7.8 3.5z"/><path fill="none" d="M0 0h40v40H0z"/></g><g id="icon_2" class="st0"><g class="st8"><path d="M30 4H4v32h32V10l-6-6zM20 32c-2.8 0-5-2.2-5-5s2.2-5 5-5 5 2.2 5 5-2.2 5-5 5zm7-18H7V7h20v7z"/><path class="st14" d="M0 0h40v40H0z"/></g></g><g id="icon4"><defs><path id="SVGID_1_" d="M175-1030.4h7v7h-7z"/></defs><clipPath id="SVGID_2_"><use xlink:href="#SVGID_1_" overflow="visible"/></clipPath><g clip-path="url(#SVGID_2_)"><defs><path id="SVGID_3_" d="M-168-1044.4h375v2123h-375z"/></defs><clipPath id="SVGID_4_"><use xlink:href="#SVGID_3_" overflow="visible"/></clipPath></g><g><defs><path id="SVGID_5_" d="M184-1030.4h7v7h-7z"/></defs><clipPath id="SVGID_6_"><use xlink:href="#SVGID_5_" overflow="visible"/></clipPath><g clip-path="url(#SVGID_6_)"><defs><path id="SVGID_7_" d="M-168-1044.4h375v2123h-375z"/></defs><clipPath id="SVGID_8_"><use xlink:href="#SVGID_7_" overflow="visible"/></clipPath></g></g><g><path class="st14" d="M0 0h40v40H0z"/><path d="M16 8v8H8V8h8m2-2H6v12h12V6zm-2 18v8H8v-8h8m2-2H6v12h12V22zm14 2v8h-8v-8h8m2-2H22v12h12V22zM32 8v8h-8V8h8m2-2H22v12h12V6z"/></g></g></svg>