<svg viewBox="0 0 38 34" fill="none">
    <path fill-rule="evenodd" clip-rule="evenodd" d="M18.9996 5.62299L15.6051 2.55614C12.2106 -0.510215 6.56995 0.17753 3.48147 3.57849C-0.397666 7.66674 -0.397863 14.5859 3.70675 18.9121L19 33.8811L34.2923 18.9121C38.3969 14.5859 38.3971 7.66747 34.5176 3.57849C31.4291 0.17753 25.7888 -0.510094 22.3942 2.55614L18.9996 5.62299ZM32.0081 16.6701C34.9446 13.533 34.8523 8.58052 32.1962 5.78099L32.1721 5.75565L32.1487 5.72978C30.0533 3.42248 26.4219 3.23047 24.5394 4.93062L18.9996 9.93557L13.4601 4.93076C11.5777 3.2306 7.94577 3.42244 5.85042 5.72978L5.82689 5.75569L5.8028 5.78108C3.14716 8.57988 3.05453 13.533 5.99094 16.6701L18.9999 29.4033L32.0081 16.6701Z"
    fill="#6d6d6d"></path>
</svg>