<?xml version="1.0" encoding="utf-8"?>
<!-- Generator: Adobe Illustrator 26.2.1, SVG Export Plug-In . SVG Version: 6.00 Build 0)  -->
<svg version="1.1" id="Layer_1" xmlns="http://www.w3.org/2000/svg" xmlns:xlink="http://www.w3.org/1999/xlink" x="0px" y="0px"
	 viewBox="0 0 24.2 21.3" style="enable-background:new 0 0 24.2 21.3;" xml:space="preserve">
<style type="text/css">
	.st0{fill:#212121;}
</style>
<g>
	<path class="st0" d="M17.1,16.9H5.8V5.8h6.3c0.2,0,0.4,0.2,0.4,0.4s-0.2,0.4-0.4,0.4H6.6v9.7h9.8v-4.6c0-0.2,0.2-0.4,0.4-0.4
		s0.4,0.2,0.4,0.4V16.9z"/>
	<path class="st0" d="M11,12.3c-0.1,0-0.2,0-0.3-0.1c-0.1-0.1-0.1-0.4,0-0.5L17.4,5c0.1-0.1,0.4-0.1,0.5,0c0.1,0.1,0.1,0.4,0,0.5
		l-6.7,6.7C11.2,12.3,11.1,12.3,11,12.3z"/>
	<path class="st0" d="M18,9c-0.2,0-0.4-0.2-0.4-0.4V5.1h-3.9c-0.2,0-0.4-0.2-0.4-0.4s0.2-0.4,0.4-0.4H18c0.2,0,0.4,0.2,0.4,0.4v3.8
		C18.4,8.8,18.2,9,18,9z"/>
</g>
</svg>
