<?xml version="1.0" encoding="utf-8"?>
<!-- Generator: Adobe Illustrator 26.2.1, SVG Export Plug-In . SVG Version: 6.00 Build 0)  -->
<svg version="1.1" id="Layer_1" xmlns="http://www.w3.org/2000/svg" xmlns:xlink="http://www.w3.org/1999/xlink" x="0px" y="0px"
	 viewBox="0 0 24.2 21.3" style="enable-background:new 0 0 24.2 21.3;" xml:space="preserve">
<style type="text/css">
	.st0{fill:#4B4B4B;}
</style>
<path class="st0" d="M378.7,348.1c-0.1,0-0.3,0-0.4-0.1l-12.7-12.7c-0.2-0.2-0.2-0.5,0-0.7s0.5-0.2,0.7,0l12.7,12.7
	c0.2,0.2,0.2,0.5,0,0.7C378.9,348.1,378.8,348.1,378.7,348.1z"/>
<path class="st0" d="M365.9,348.1c-0.1,0-0.3,0-0.4-0.1c-0.2-0.2-0.2-0.5,0-0.7l12.7-12.7c0.2-0.2,0.5-0.2,0.7,0s0.2,0.5,0,0.7
	L366.3,348C366.2,348.1,366.1,348.1,365.9,348.1z"/>
<path class="st0" d="M9.2,11.1c-0.2,0-0.4-0.2-0.4-0.4c0-0.2,0.2-0.4,0.4-0.4l5.8-0.1c0.2,0,0.4,0.2,0.4,0.4c0,0.2-0.2,0.4-0.4,0.4
	L9.2,11.1C9.2,11.1,9.2,11.1,9.2,11.1z"/>
</svg>
