<?xml version="1.0" encoding="utf-8"?>
<!-- Generator: Adobe Illustrator 26.2.1, SVG Export Plug-In . SVG Version: 6.00 Build 0)  -->
<svg version="1.1" id="Layer_1" xmlns="http://www.w3.org/2000/svg" xmlns:xlink="http://www.w3.org/1999/xlink" x="0px" y="0px"
	 viewBox="0 0 24.2 21.3" style="enable-background:new 0 0 24.2 21.3;" xml:space="preserve">
<style type="text/css">
	.st0{fill:none;stroke:#212121;stroke-linecap:round;stroke-linejoin:round;stroke-miterlimit:10;}
	.st1{fill:#212121;}
</style>
<g>
	<circle class="st0" cx="11.7" cy="5.6" r="4.3"/>
	<g>
		<path class="st1" d="M16.3,20h-0.7v-2l0-1h0l-0.5,1l-0.6,1.2H14L13.3,18l-0.5-1h0l0,1v2h-0.7v-4.3h0.7l1.4,2.6l1.4-2.6h0.7V20z"/>
		<path class="st1" d="M18.4,18.5l-1.6-2.8h0.8l1.2,2.1l1.2-2.1h0.8L19,18.5V20h-0.7V18.5z"/>
	</g>
	<path class="st0" d="M3.6,18.4c0-3.7,2.9-5.3,6.6-5.3h1.6c1.9,0,3.2,0,5.1,1.1"/>
</g>
</svg>

