<?xml version="1.0" encoding="utf-8"?>
<!-- Generator: Adobe Illustrator 26.2.1, SVG Export Plug-In . SVG Version: 6.00 Build 0)  -->
<svg version="1.1" id="Layer_1" xmlns="http://www.w3.org/2000/svg" xmlns:xlink="http://www.w3.org/1999/xlink" x="0px" y="0px"
	 viewBox="0 0 24.2 21.3" style="enable-background:new 0 0 24.2 21.3;" xml:space="preserve">
<style type="text/css">
	.st0{fill:#212121;}
</style>
<g>
	<path class="st0" d="M21.1,4.5h-18C2.8,4.5,2.6,4.2,2.6,4s0.2-0.5,0.5-0.5h18c0.3,0,0.5,0.2,0.5,0.5S21.4,4.5,21.1,4.5z"/>
	<path class="st0" d="M18.1,11.2h-15c-0.3,0-0.5-0.2-0.5-0.5s0.2-0.5,0.5-0.5h15c0.3,0,0.5,0.2,0.5,0.5S18.4,11.2,18.1,11.2z"/>
	<path class="st0" d="M21.1,17.8h-18c-0.3,0-0.5-0.2-0.5-0.5s0.2-0.5,0.5-0.5h18c0.3,0,0.5,0.2,0.5,0.5S21.4,17.8,21.1,17.8z"/>
</g>
</svg>
