
<svg version="1.1" id="Layer_1" xmlns="http://www.w3.org/2000/svg" xmlns:xlink="http://www.w3.org/1999/xlink" x="0px" y="0px"
	 viewBox="0 0 24.2 21.3" >
<style type="text/css">
	.st0{fill:#212121;}
</style>
<path class="st0" d="M10.6,18.2C5.9,18.2,2,14.3,2,9.5s3.9-8.6,8.6-8.6s8.6,3.9,8.6,8.6S15.4,18.2,10.6,18.2z M10.6,1.9
	C6.4,1.9,3,5.3,3,9.5s3.4,7.6,7.6,7.6s7.6-3.4,7.6-7.6S14.8,1.9,10.6,1.9z"/>
<path class="st0" d="M21,20.4c-0.1,0-0.3,0-0.4-0.1l-4.4-4.4c-0.2-0.2-0.2-0.5,0-0.7s0.5-0.2,0.7,0l4.4,4.4c0.2,0.2,0.2,0.5,0,0.7
	C21.2,20.3,21.1,20.4,21,20.4z"/>
</svg>
