<svg viewBox="0 0 32 35" fill="none">
    <path fill-rule="evenodd" clip-rule="evenodd" d="M25.5 9.8C27.3226 9.8 28.8 8.32254 28.8 6.5C28.8 4.67746 27.3226 3.2 25.5 3.2C23.6775 3.2 22.2 4.67746 22.2 6.5C22.2 8.32254 23.6775 9.8 25.5 9.8ZM25.5 13C29.0899 13 32 10.0899 32 6.5C32 2.91015 29.0899 0 25.5 0C21.9102 0 19 2.91015 19 6.5C19 7.00407 19.0574 7.49475 19.166 7.96584L13.2462 11.8889L10.9897 13.2996C9.82276 12.1847 8.24135 11.4999 6.5 11.4999C2.91015 11.4999 0 14.4101 0 17.9999C0 21.5898 2.91015 24.4999 6.5 24.4999C8.22679 24.4999 9.79631 23.8266 10.9603 22.7281L19.0878 27.4291C19.0301 27.7775 19 28.1352 19 28.4999C19 32.0898 21.9102 34.9999 25.5 34.9999C29.0899 34.9999 32 32.0898 32 28.4999C32 24.9101 29.0899 21.9999 25.5 21.9999C23.4257 21.9999 21.5784 22.9716 20.3882 24.4846L12.6783 20.0251C12.8871 19.3878 13 18.7071 13 17.9999C13 17.3061 12.8913 16.6376 12.6899 16.0106L14.9785 14.5798L20.6465 10.8236C21.8369 12.159 23.5703 13 25.5 13ZM6.5 21.2999C8.32254 21.2999 9.8 19.8225 9.8 17.9999C9.8 16.1774 8.32254 14.6999 6.5 14.6999C4.67746 14.6999 3.2 16.1774 3.2 17.9999C3.2 19.8225 4.67746 21.2999 6.5 21.2999ZM28.8 28.4999C28.8 30.3225 27.3226 31.7999 25.5 31.7999C23.6775 31.7999 22.2 30.3225 22.2 28.4999C22.2 26.6774 23.6775 25.1999 25.5 25.1999C27.3226 25.1999 28.8 26.6774 28.8 28.4999Z" 
    fill="#6d6d6d"></path>
</svg>